<svg width="25" height="24" viewBox="0 0 25 24" fill="none" xmlns="http://www.w3.org/2000/svg">
<path d="M4.38603 8.46154C2.21071 10.4706 3.59196 14 6.84965 14C8.48053 14 9.85812 13.0186 10.3007 11.6727M6.27146 10.3077C2.65714 8.8909 4.58025 4.36129 8.28608 4.79869C8.28608 3.26929 9.63904 2 11.308 2C12.977 2 14.3299 3.02188 14.3299 4.55129C14.8646 4.11279 15.5706 3.84615 16.3446 3.84615C18.0135 3.84615 19.3665 5.08598 19.3665 6.61538C19.3665 8.14479 18.0135 9.38462 16.3446 9.38462M19.1945 7.53846C22.6844 8.80845 21.6688 14 17.8555 14C15.9084 14 14.3299 12.5041 14.3299 10.6588C13.3226 12.1538 11.8117 12.6154 10.3007 11.6923" stroke="#7D848B" stroke-width="1.5" stroke-linecap="round" stroke-linejoin="round"/>
<path d="M7.33398 14C8.2203 14.4415 9.74685 16.5365 9.83398 21C9.84687 21.66 11.6185 22 12.334 22C13.0495 22 14.8211 21.66 14.834 21C14.9211 16.5365 16.4477 14.4415 17.334 14" stroke="#7D848B" stroke-width="1.5" stroke-linecap="round"/>
</svg>
