<svg width="25" height="24" viewBox="0 0 25 24" fill="none" xmlns="http://www.w3.org/2000/svg">
<path d="M3.66602 17H11.166" stroke="#7D848B" stroke-width="1.5" stroke-linecap="round" stroke-linejoin="round"/>
<path d="M18.666 17H21.166" stroke="#7D848B" stroke-width="1.5" stroke-linecap="round" stroke-linejoin="round"/>
<path d="M12.666 5C14.0467 5 15.166 6.11929 15.166 7.5C15.166 8.88071 14.0467 10 12.666 10C11.2853 10 10.166 8.88071 10.166 7.5C10.166 6.11929 11.2853 5 12.666 5ZM12.666 5C12.8327 4.5 13.566 3.4 15.166 3" stroke="#7D848B" stroke-width="1.5" stroke-linecap="round" stroke-linejoin="round"/>
<path d="M2.16602 12L3.11871 16.2983C3.61827 18.5523 3.86805 19.6792 4.69084 20.3396C5.51363 21 6.66794 21 8.97655 21H17.5548C19.2774 21 20.1387 21 20.7103 20.482C21.2819 19.964 21.3664 19.1069 21.5355 17.3926L22.166 11" stroke="#7D848B" stroke-width="1.5" stroke-linecap="round"/>
<path d="M21.4166 9.01261L20.7692 9.39126V9.39126L21.4166 9.01261ZM8.02624 8.97199L7.77588 8.26501L7.77587 8.26501L8.02624 8.97199ZM2.17346 11.8824L1.43605 12.0192L2.17346 11.8824ZM16.5393 6.01795L16.617 6.7639L16.5393 6.01795ZM16.1103 14.8232L15.3845 14.6341V14.6341L16.1103 14.8232ZM13.8585 14.7443L13.1085 14.7421V14.7421L13.8585 14.7443ZM16.7941 12.9051L17.2751 13.4805L17.2751 13.4805L16.7941 12.9051ZM14.7216 5.80533C14.3311 5.9436 14.1267 6.37222 14.265 6.76267C14.4032 7.15313 14.8318 7.35756 15.2223 7.21929L14.7216 5.80533ZM10.5388 8.87785C10.9293 8.73958 11.1337 8.31096 10.9954 7.92051C10.8572 7.53005 10.4285 7.32562 10.0381 7.46389L10.5388 8.87785ZM8.71211 11.9185C6.564 11.9185 5.00824 11.9177 3.96701 11.8233C3.4409 11.7756 3.11309 11.7087 2.92701 11.637C2.73336 11.5624 2.87645 11.5601 2.91087 11.7455L1.43605 12.0192C1.54339 12.5977 2.00755 12.8902 2.38766 13.0367C2.77533 13.1861 3.27397 13.2666 3.83156 13.3171C4.95772 13.4193 6.59837 13.4185 8.71211 13.4185V11.9185ZM7.77587 8.26501C5.79276 8.96728 4.25233 9.51194 3.2316 9.98231C2.72663 10.215 2.28536 10.4572 1.97255 10.7286C1.66371 10.9966 1.32756 11.4345 1.43605 12.0192L2.91087 11.7455C2.94643 11.9372 2.80552 11.9918 2.95555 11.8616C3.1016 11.7349 3.38281 11.5642 3.85938 11.3446C4.80174 10.9104 6.26062 10.3929 8.2766 9.67896L7.77587 8.26501ZM20.7692 9.39126C21.1352 10.0171 21.3228 10.3521 21.3915 10.6339C21.4382 10.8259 21.4346 11.0068 21.2352 11.3345L22.5165 12.1143C22.8917 11.4979 23.0031 10.9122 22.8489 10.2789C22.7165 9.73546 22.3872 9.18661 22.064 8.63396L20.7692 9.39126ZM18.42 13.4185C19.3471 13.4185 20.1616 13.4224 20.8096 13.2839C21.5265 13.1306 22.1039 12.7923 22.5165 12.1143L21.2352 11.3345C21.0732 11.6006 20.8832 11.7343 20.496 11.817C20.0399 11.9145 19.4137 11.9185 18.42 11.9185V13.4185ZM11.927 11.9185H8.71211V13.4185H11.927V11.9185ZM14.6085 14.7465C14.6102 14.1547 14.4952 13.449 14.0655 12.8747C13.6069 12.2617 12.8815 11.9185 11.927 11.9185V13.4185C12.4955 13.4185 12.7373 13.6033 12.8644 13.7732C13.0205 13.9819 13.1097 14.3141 13.1085 14.7421L14.6085 14.7465ZM15.0033 15.25C14.9154 15.25 14.8268 15.2127 14.7465 15.12C14.661 15.0212 14.6081 14.882 14.6085 14.7465L13.1085 14.7421C13.1057 15.6904 13.8235 16.75 15.0033 16.75V15.25ZM16.8361 15.0123C16.9885 14.4273 17.0932 14.0268 17.1873 13.7454C17.2945 13.4249 17.3384 13.4276 17.2751 13.4805L16.3132 12.3296C16.0145 12.5792 15.8659 12.9672 15.7648 13.2697C15.6505 13.6113 15.5311 14.0715 15.3845 14.6341L16.8361 15.0123ZM8.2766 9.67896L10.5388 8.87785L10.0381 7.46389L7.77588 8.26501L8.2766 9.67896ZM15.3845 14.6341C15.3338 14.829 15.2483 15.0173 15.1506 15.1396C15.0588 15.2546 15.0119 15.25 15.0033 15.25V16.75C15.6105 16.75 16.049 16.4184 16.3227 16.0757C16.5905 15.7403 16.7506 15.3402 16.8361 15.0123L15.3845 14.6341ZM18.42 11.9185C18.3135 11.9185 18.2022 11.9127 18.0414 11.9072C17.8932 11.9022 17.7173 11.8984 17.5366 11.9082C17.1956 11.9267 16.7099 11.998 16.3132 12.3296L17.2751 13.4805C17.2922 13.4662 17.3728 13.4193 17.6179 13.406C17.7303 13.3999 17.8524 13.4017 17.9907 13.4064C18.1163 13.4106 18.2798 13.4185 18.42 13.4185V11.9185ZM15.2223 7.21929C15.3613 7.17007 15.4997 7.11602 15.627 7.06624C15.758 7.01501 15.8782 6.96795 15.9978 6.92488C16.2391 6.83802 16.4388 6.78248 16.617 6.7639L16.4616 5.27199C16.1052 5.30913 15.7727 5.41169 15.4898 5.51354C15.3473 5.56482 15.2073 5.61977 15.0808 5.66924C14.9506 5.72015 14.8341 5.76547 14.7216 5.80533L15.2223 7.21929ZM22.064 8.63396C21.5424 7.74219 20.7405 6.85742 19.7882 6.21728C18.838 5.57856 17.678 5.1452 16.4616 5.27199L16.617 6.7639C17.3786 6.68454 18.1907 6.95084 18.9514 7.46217C19.7099 7.97206 20.3577 8.6877 20.7692 9.39126L22.064 8.63396Z" fill="#7D848B"/>
</svg>
