<svg width="25" height="24" viewBox="0 0 25 24" fill="none" xmlns="http://www.w3.org/2000/svg">
<path d="M16.7006 14.6886L9.81135 7.79939C9.34911 7.33715 9.11799 7.10603 8.83269 7.03327C8.72784 7.00653 8.61954 6.99581 8.51149 7.00147C8.21745 7.01686 7.94549 7.19817 7.40157 7.56078L7.26211 7.65376C6.15941 8.38889 5.60805 8.75646 5.52086 9.19212C5.47402 9.42615 5.50656 9.66912 5.61333 9.88258C5.81208 10.28 6.44072 10.4895 7.69799 10.9086C8.10207 11.0433 8.30411 11.1106 8.45873 11.2387C8.54473 11.3099 8.61907 11.3942 8.67908 11.4883C8.787 11.6576 8.82876 11.8665 8.9123 12.2841L9.18235 13.6344C9.31834 14.3143 9.38633 14.6543 9.61602 14.884C9.84571 15.1137 10.1857 15.1817 10.8656 15.3176L12.2159 15.5877C12.6335 15.6712 12.8424 15.713 13.0117 15.8209C13.1058 15.8809 13.1901 15.9553 13.2613 16.0413C13.3894 16.1959 13.4567 16.3979 13.5914 16.802C14.0105 18.0593 14.22 18.6879 14.6174 18.8867C14.8309 18.9934 15.0738 19.026 15.3079 18.9791C15.7435 18.8919 16.1111 18.3406 16.8462 17.2379L16.9392 17.0984C17.3018 16.5545 17.4831 16.2825 17.4985 15.9885C17.5042 15.8805 17.4935 15.7722 17.4667 15.6673C17.394 15.382 17.1628 15.1509 16.7006 14.6886Z" stroke="#7D848B" stroke-width="1.5"/>
<path d="M14 18L12.2256 19.8557C10.7961 21.2852 10.0813 22 9.19309 22C8.30489 22 7.59012 21.2852 6.16057 19.8557L4.64431 18.3394C3.21477 16.9099 2.5 16.1951 2.5 15.3069C2.5 14.4187 3.21477 13.7039 4.64431 12.2744L6.5 10.5" stroke="#7D848B" stroke-width="1.5"/>
<path d="M9.5 7.70827L13.1459 4.06241C14.5208 2.68747 15.2083 2 16.0626 2C16.9168 2 17.6043 2.68747 18.9792 4.06241L20.4376 5.52076C21.8125 6.8957 22.5 7.58317 22.5 8.43745C22.5 9.29173 21.8125 9.9792 20.4376 11.3541L16.7917 15" stroke="#7D848B" stroke-width="1.5"/>
<path d="M20.1003 4.39996L12.9003 11.6M12.5 4L20.5 12" stroke="#7D848B" stroke-width="1.5" stroke-linejoin="round"/>
</svg>
